<?xml version="1.0" encoding="UTF-8" standalone="no"?>
<!-- Created with Inkscape (http://www.inkscape.org/) -->
<svg
   xmlns:dc="http://purl.org/dc/elements/1.1/"
   xmlns:cc="http://web.resource.org/cc/"
   xmlns:rdf="http://www.w3.org/1999/02/22-rdf-syntax-ns#"
   xmlns:svg="http://www.w3.org/2000/svg"
   xmlns="http://www.w3.org/2000/svg"
   xmlns:sodipodi="http://inkscape.sourceforge.net/DTD/sodipodi-0.dtd"
   xmlns:inkscape="http://www.inkscape.org/namespaces/inkscape"
   id="svg1327"
   sodipodi:version="0.32"
   inkscape:version="0.43"
   width="345"
   height="480"
   sodipodi:docbase="C:\foo\wikipedia\transfer"
   sodipodi:docname="Profilo.svg"
   version="1.0">
  <metadata
     id="metadata1332">
    <rdf:RDF>
      <cc:Work
         rdf:about="">
        <dc:format>image/svg+xml</dc:format>
        <dc:type
           rdf:resource="http://purl.org/dc/dcmitype/StillImage" />
      </cc:Work>
    </rdf:RDF>
  </metadata>
  <defs
     id="defs1330" />
  <sodipodi:namedview
     inkscape:window-height="540"
     inkscape:window-width="812"
     inkscape:pageshadow="2"
     inkscape:pageopacity="0.0"
     borderopacity="1.0"
     bordercolor="#666666"
     pagecolor="#ffffff"
     id="base"
     inkscape:zoom="0.59496526"
     inkscape:cx="216.3344"
     inkscape:cy="150.74359"
     inkscape:window-x="110"
     inkscape:window-y="110"
     inkscape:current-layer="svg1327" />
  <path
     style="fill:#000000"
     d="M -0.57012639,241.11064 L -0.57012639,1.1106407 L 162.237,1.1106407 L 325.04413,1.1106407 L 329.5601,7.3606407 C 334.60078,14.336841 336.83338,19.735871 338.34736,28.610641 C 339.76926,36.945641 339.71623,50.405651 338.26502,49.508761 C 337.89935,49.282761 336.85136,51.238231 335.93615,53.854251 C 333.19638,61.685511 331.50545,64.548991 328.90174,65.766561 C 326.86805,66.717571 326.42987,66.661301 326.42987,65.449171 C 326.42987,64.407841 325.81452,64.171171 324.33115,64.641971 C 322.27851,65.293451 322.27302,65.263571 324.08115,63.281041 C 329.77447,57.038541 331.49228,53.270091 330.74464,48.662931 C 330.27656,45.778471 329.30449,44.425311 326.36945,42.572501 C 324.29407,41.262371 321.48275,39.911031 320.12205,39.569521 C 317.37766,38.880721 315.71017,40.501761 317.20589,42.404451 C 318.53006,44.088901 319.63048,49.093031 318.69892,49.193971 C 318.27594,49.239811 316.92787,49.388831 315.70319,49.525141 C 313.83016,49.733611 313.56944,49.402731 314.0616,47.441801 C 314.74873,44.704051 312.69553,44.189351 311.74325,46.860641 C 310.42366,50.562311 309.26734,51.273521 307.36607,49.552901 C 305.72756,48.070071 305.51288,48.087601 304.61202,49.777681 C 304.07466,50.785811 303.08168,53.635641 302.40539,56.110641 C 301.49663,59.436441 301.00558,60.141911 300.52348,58.814271 C 299.93292,57.187971 299.66095,57.259691 297.65052,59.571881 C 296.42916,60.976571 295.42987,62.377451 295.42987,62.684971 C 295.42987,63.586571 290.058,70.536581 288.68578,71.410331 C 286.92512,72.531421 287.10166,78.832471 289.50682,100.71459 C 290.82185,112.67868 291.34404,121.89302 290.93027,125.83226 C 290.57084,129.25416 290.64182,132.62916 291.088,133.33226 C 291.53419,134.03537 291.90614,135.81117 291.91456,137.27849 C 291.92678,139.40769 291.17142,140.28097 288.1734,141.60369 C 280.6592,144.91895 276.58837,154.40043 278.45446,164.2403 C 279.00855,167.16199 281.46525,173.84055 283.91379,179.08155 C 286.7773,185.21075 289.5833,193.65886 291.77833,202.75959 C 293.81938,211.22187 296.84664,220.50277 299.31042,225.85133 C 304.98196,238.16352 304.76927,244.77124 298.49962,251.04089 C 293.66171,255.8788 288.08126,257.44474 276.39066,257.24493 C 269.71795,257.13089 266.29412,257.48942 264.99678,258.43805 C 262.63611,260.16422 261.08628,270.42581 262.46185,275.22214 C 263.89641,280.22416 263.63607,287.37124 261.93062,289.80611 C 259.87699,292.73807 253.79125,296.36149 249.77226,297.04513 C 246.46493,297.60771 246.45544,297.62546 247.9388,300.47495 C 249.71666,303.89018 249.89305,311.99996 248.26709,315.56855 C 247.60256,317.02704 244.49598,319.5834 241.01709,321.53446 C 237.66912,323.4121 233.60367,326.33958 231.98276,328.03995 C 229.28627,330.86865 229.13072,331.40704 230.15355,334.3711 C 230.89629,336.52349 231.02898,341.15906 230.54895,348.18442 C 229.94263,357.05796 229.39573,359.49317 227.14778,363.32902 C 219.34058,376.651 204.91158,380.77354 187.1688,374.75151 C 182.90022,373.30272 173.22522,369.37664 165.6688,366.02689 C 142.24142,355.64155 138.75281,354.66904 124.92987,354.67028 C 113.94876,354.67126 112.42547,354.90475 106.98932,357.42024 C 100.46985,360.43701 90.933463,366.4868 89.795733,368.32768 C 88.730803,370.05077 99.323959,379.10259 108.24309,384.09091 C 112.42913,386.43209 118.79612,390.30111 122.39197,392.68874 C 131.14175,398.49856 162.82021,423.14471 168.30592,428.41023 C 174.32124,434.18411 184.23441,447.54481 187.09109,453.72838 C 188.39145,456.54314 190.64292,460.14314 192.09434,461.72838 C 193.54577,463.31362 197.34862,467.42206 200.54512,470.85824 C 203.74162,474.29443 206.83918,478.00693 207.42859,479.10824 C 208.49749,481.1055 208.23205,481.11064 103.96505,481.11064 L -0.57012639,481.11064 L -0.57012639,241.11064 z M 287.9512,51.503691 C 289.65821,44.356281 289.67566,44.110641 288.47666,44.110641 C 287.9524,44.110641 286.6024,46.192841 285.47666,48.737761 C 283.40161,53.428761 282.87028,57.217711 284.1132,58.460641 C 285.32747,59.674911 286.51283,57.526261 287.9512,51.503691 z M 294.48254,50.915041 C 295.76668,46.146111 294.98886,44.640301 293.3546,48.731411 C 292.72202,50.314991 291.58017,52.805071 290.81716,54.264931 C 290.05415,55.724791 289.44484,57.524791 289.46314,58.264931 C 289.52313,60.691681 293.36465,55.066551 294.48254,50.915041 z M 284.53132,46.268971 C 284.8904,44.513301 284.78212,42.828351 284.29072,42.524641 C 283.79931,42.220931 283.66296,41.441041 283.98772,40.791541 C 284.31247,40.142051 283.93782,40.391151 283.15515,41.345101 C 282.37248,42.299051 281.51411,42.861551 281.24766,42.595101 C 280.58347,41.930911 280.4543,45.105091 281.0305,47.931681 C 281.68093,51.122461 283.73855,50.145201 284.53132,46.268971 z M 331.25319,33.777771 C 331.4712,32.653691 330.90116,32.110641 329.50319,32.110641 C 327.21826,32.110641 327.15203,32.223021 328.05308,34.571121 C 328.81455,36.555501 330.81044,36.060691 331.25319,33.777771 z M 327.42987,25.669661 C 327.42987,24.077031 325.61551,22.591671 324.7398,23.467381 C 323.91716,24.290021 325.20132,27.110641 326.39849,27.110641 C 326.96575,27.110641 327.42987,26.462201 327.42987,25.669661 z M 321.42987,21.169661 C 321.42987,20.652121 320.97987,19.950561 320.42987,19.610641 C 319.87987,19.270721 319.42987,19.694161 319.42987,20.551621 C 319.42987,21.409081 319.87987,22.110641 320.42987,22.110641 C 320.97987,22.110641 321.42987,21.687201 321.42987,21.169661 z "
     id="path1336" />
</svg>
